<svg width="356" height="93" viewBox="0 0 356 93" fill="none" xmlns="http://www.w3.org/2000/svg">
<path d="M41.216 92.16L0 0.639999H22.272L56.192 76.16H57.856L91.776 0.639999H114.048L72.832 92.16H41.216Z" fill="white"/>
<path d="M166.668 92.8C150.369 92.8 137.74 88.9173 128.78 81.152C119.82 73.3013 115.34 61.696 115.34 46.336C115.34 31.0613 119.82 19.5413 128.78 11.776C137.74 3.92533 150.668 0 167.564 0H190.604C207.5 0 220.428 3.92533 229.388 11.776C238.348 19.5413 242.828 31.0613 242.828 46.336C242.828 61.696 238.348 73.3013 229.388 81.152C220.428 88.9173 207.713 92.8 191.244 92.8H166.668ZM168.972 16.64C159.5 16.64 152.119 18.3467 146.828 21.76C141.537 25.1733 138.209 30.592 136.844 38.016H221.324C219.959 30.592 216.631 25.1733 211.34 21.76C206.049 18.3467 198.668 16.64 189.196 16.64H168.972ZM169.356 76.16H189.196C198.753 76.16 206.135 74.4533 211.34 71.04C216.631 67.6267 219.959 62.1653 221.324 54.656H136.844C138.209 62.1653 141.537 67.6267 146.828 71.04C152.119 74.4533 159.628 76.16 169.356 76.16Z" fill="white"/>
<path d="M255.585 92.16V0.639999H355.937V17.28H276.065V37.504H348.513V54.144H276.065V75.52H355.937V92.16H255.585Z" fill="white"/>
<path d="M93.1509 38.16H257V54.16L85.7219 54.656L93.1509 38.16Z" fill="white"/>
</svg>
